REM MD5 da5b0a1defbc29dfea38c317a010754a
FILE "Dengeki PlayStation D22 (Japan).bin" BINARY
  TRACK 01 MODE2/2352
    INDEX 01 00:00:00
  TRACK 02 AUDIO
    INDEX 00 60:52:51
    INDEX 01 60:54:51
  TRACK 03 AUDIO
    INDEX 00 62:13:22
    INDEX 01 62:15:22
  TRACK 04 AUDIO
    INDEX 00 65:18:69
    INDEX 01 65:20:69
REM LEADOUT 68:50:69
